# xmcd
#
# Track frame offsets:
#	183
#	11493
#	22320
#	33098
#	45280
#	55458
#	68340
#	81345
#	92320
#	101898
#	111595
#	120823
#	134510
#	144285
#	153720
#	166655
#
# Disc length: 2393
#
# Revision: 1
# Processed by: cddbd v1.5.1PL0 Copyright (c) Steve Scherf et al.
# Submitted via: dBpowerAMP V4.0
# Normalized: r0:DSETVAR2,TDELIM( - )
#
DISCID=c7095710
DTITLE=Various Artist - Les Années 60 vol 2
DYEAR=1900
DGENRE=
TTITLE0=Johnny Hallyday - T'Aimer Follement
TTITLE1=Les Fantomes - La Shlap
TTITLE2=Les Cyclones - On Dit de Lui
TTITLE3=Les Faux-Frères - Quinze Ans
TTITLE4=José Salcy - Je Suis Né Pour Pleurer
TTITLE5=Michel Paje - Nous En Est Dans le Vent
TTITLE6=Stella - Pourquoi Pas Moi
TTITLE7=Jean-Jacques Debout - Un Rien Te Rend Triste
TTITLE8=Alain Dumas - Ca Fait Un Drole d'Effet
TTITLE9=Micky Amline - Why, Why
TTITLE10=Françoise Hardy - Je Suis d'Accord
TTITLE11=Michel Paje - J'Avais Juré
TTITLE12=Jean-Jacques Debout - Pour Moi, La Vie Va Commenceer
TTITLE13=Les Fantomes - Loop de Loop
TTITLE14=Jacques Dutronc - Et Moi, Et Moi, Et Moi
TTITLE15=Antoine - Juste Quelques Flocons Qui Tombent
EXTD=
EXTT0=
EXTT1=
EXTT2=
EXTT3=
EXTT4=
EXTT5=
EXTT6=
EXTT7=
EXTT8=
EXTT9=
EXTT10=
EXTT11=
EXTT12=
EXTT13=
EXTT14=
EXTT15=
PLAYORDER=
